<svg width="22" height="19" viewBox="0 0 22 19" fill="none" xmlns="http://www.w3.org/2000/svg">
<path fill-rule="evenodd" clip-rule="evenodd" d="M7.18069 3.81937C7.18069 1.71334 8.89403 0 11 0C13.106 0 14.8193 1.71338 14.8193 3.81937C14.8193 5.24783 14.031 6.49547 12.8665 7.15049C12.3143 7.46115 11.6776 7.6387 11 7.6387C10.3225 7.6387 9.68578 7.46115 9.1335 7.15049C7.96913 6.49547 7.18069 5.24787 7.18069 3.81937ZM12.9448 8.4209H9.05522C7.30407 8.4209 5.87939 9.84557 5.87939 11.5967V18.027C5.87939 18.3778 6.16376 18.6622 6.51456 18.6622H15.4855C15.8363 18.6622 16.1207 18.3778 16.1207 18.027V11.5967C16.1207 9.84557 14.696 8.4209 12.9448 8.4209ZM4.87722 10.0752C4.7038 10.55 4.60905 11.0624 4.60905 11.5965V18.0267C4.60905 18.2494 4.64781 18.4631 4.71832 18.662H1.9055C0.854779 18.662 0 17.8071 0 16.7565V13.251C0 11.4999 1.42467 10.0752 3.17583 10.0752H4.87722ZM17.1228 10.0752H18.8242C20.5754 10.0752 22.0001 11.4999 22 13.251V16.7564C22 17.8071 21.1452 18.6619 20.0945 18.6619H17.2817C17.3522 18.4631 17.391 18.2494 17.391 18.0268V11.5965C17.391 11.0624 17.2963 10.55 17.1228 10.0752ZM4.29333 3.56006C2.71831 3.56006 1.43698 4.84139 1.43698 6.41641C1.43698 7.99144 2.71831 9.27277 4.29333 9.27277C4.69286 9.27277 5.0733 9.19001 5.4189 9.04125C6.01643 8.784 6.50911 8.32861 6.81397 7.7582C7.02796 7.35786 7.14969 6.90114 7.14969 6.41641C7.14969 4.84143 5.86836 3.56006 4.29333 3.56006ZM14.8503 6.41641C14.8503 4.84139 16.1317 3.56006 17.7067 3.56006C19.2817 3.56006 20.563 4.84139 20.563 6.41641C20.563 7.99144 19.2817 9.27277 17.7067 9.27277C17.3072 9.27277 16.9267 9.19001 16.5811 9.04125C15.9836 8.78404 15.4909 8.32866 15.1861 7.7582C14.9721 7.3579 14.8503 6.90119 14.8503 6.41641Z" fill="#9F9F9E"/>
</svg>
