<svg width="22" height="20" viewBox="0 0 22 20" fill="none" xmlns="http://www.w3.org/2000/svg">
<path d="M21.7103 6.33414C21.4999 6.10331 21.202 5.97163 20.8896 5.97163H1.11032C0.797989 5.97163 0.499986 6.10331 0.289584 6.33414C0.0791826 6.56497 -0.0241861 6.87386 0.00479264 7.18485L1.06013 18.5209C1.11331 19.0918 1.5923 19.5283 2.16565 19.5283H19.8343C20.4076 19.5283 20.8866 19.0917 20.9398 18.5209L21.9951 7.18485C22.0241 6.87386 21.9207 6.56497 21.7103 6.33414ZM14.7032 17.2032C14.7025 17.2031 14.7018 17.2031 14.701 17.2032H7.29901C6.68579 17.2032 6.18871 16.706 6.18871 16.0929C6.18871 14.5851 7.41537 13.3584 8.92315 13.3584H9.72001C8.9005 12.9057 8.34402 12.0327 8.34402 11.0321C8.34402 9.56766 9.53548 8.37609 11.0001 8.37609C12.4647 8.37609 13.6561 9.56755 13.6561 11.0321C13.6561 12.0327 13.0996 12.9057 12.2801 13.3584H13.077C14.554 13.3584 15.7613 14.5357 15.8099 16.0012C15.8123 16.0314 15.8137 16.062 15.8137 16.0929C15.8135 16.7061 15.3165 17.2032 14.7032 17.2032ZM19.8639 3.90458C19.8639 4.36458 19.4911 4.73731 19.0312 4.73731H2.96884C2.50896 4.73731 2.13612 4.36458 2.13612 3.90458C2.13612 3.44459 2.50896 3.07186 2.96884 3.07186H19.0312C19.4911 3.07186 19.8639 3.44459 19.8639 3.90458ZM17.6655 0.832724C17.6655 1.29272 17.2927 1.66545 16.8328 1.66545H5.16723C4.70735 1.66545 4.33451 1.29272 4.33451 0.832724C4.33451 0.372727 4.70735 0 5.16723 0H16.8327C17.2927 0 17.6655 0.372727 17.6655 0.832724Z" fill="#6AC3B9"/>
</svg>
