<svg width="23" height="22" viewBox="0 0 23 22" fill="none" xmlns="http://www.w3.org/2000/svg">
<path fill-rule="evenodd" clip-rule="evenodd" d="M20.9336 0H2.02148C0.90686 0 0 0.90686 0 2.02148V13.4766H4.08789V11.4551C4.08789 11.0827 4.38936 10.7812 4.76172 10.7812H5.80282C5.87248 10.5852 5.95215 10.3929 6.04234 10.2041L5.30587 9.46711C5.04266 9.2039 5.04266 8.77749 5.30587 8.51427L7.21154 6.6086C7.47475 6.34539 7.90116 6.34539 8.16438 6.6086L8.90137 7.3456C9.09019 7.25541 9.28233 7.17522 9.47852 7.10538V6.06445C9.47852 5.69209 9.77998 5.39062 10.1523 5.39062H12.8477C13.22 5.39062 13.5215 5.69209 13.5215 6.06445V7.10555C13.7175 7.17522 13.9098 7.25558 14.0986 7.3456L14.8356 6.6086C15.0988 6.34557 15.5252 6.34557 15.7885 6.6086L17.6941 8.51427C17.9573 8.77749 17.9573 9.20407 17.6941 9.46711L16.9577 10.2041C17.0479 10.3931 17.1275 10.5852 17.1972 10.7812H18.2383C18.6106 10.7812 18.9121 11.0827 18.9121 11.4551V13.4766H23V2.02148C23 0.90686 22.0482 0 20.9336 0ZM18.2383 6.73828C17.1237 6.73828 16.2168 5.83142 16.2168 4.7168C16.2168 3.60217 17.1237 2.69531 18.2383 2.69531C19.3529 2.69531 20.2598 3.60217 20.2598 4.7168C20.2598 5.83142 19.3529 6.73828 18.2383 6.73828ZM17.5644 4.7168C17.5644 4.34496 17.8664 4.04297 18.2383 4.04297C18.6101 4.04297 18.9121 4.34496 18.9121 4.7168C18.9121 5.08863 18.6101 5.39062 18.2383 5.39062C17.8664 5.39062 17.5644 5.08863 17.5644 4.7168ZM16.0283 20.2148H18.2383C18.6106 20.2148 18.9121 20.5163 18.9121 20.8887C18.9121 21.261 18.6106 21.5625 18.2383 21.5625H4.7617C4.38934 21.5625 4.08787 21.261 4.08787 20.8887C4.08787 20.5163 4.38934 20.2148 4.7617 20.2148H6.97164L7.42086 18.8672H15.5791L16.0283 20.2148ZM9.60922 13.4766C9.53219 13.2602 9.47849 13.0356 9.47849 12.8027C9.47849 11.6881 10.3852 10.7812 11.5 10.7812C12.6146 10.7812 13.5215 11.6881 13.5215 12.8027C13.5215 13.0356 13.4678 13.2602 13.3907 13.4766H9.60922ZM6.95287 11.6235C6.87601 11.921 6.60753 12.1289 6.30009 12.1289H5.43552V13.4766H8.21945C8.17418 13.2546 8.13084 13.0316 8.13084 12.8027C8.13084 10.9451 9.64239 9.43359 11.5 9.43359C13.3576 9.43359 14.8691 10.9451 14.8691 12.8027C14.8691 13.0316 14.8258 13.2546 14.7805 13.4766H17.5644V12.1289H16.6999C16.3924 12.1289 16.1239 11.921 16.0471 11.6235C15.9397 11.2057 15.7719 10.8016 15.5482 10.4226C15.3922 10.1581 15.435 9.82122 15.6521 9.60398L16.2649 8.99069L15.312 8.03786L14.6987 8.65115C14.4815 8.86909 14.1439 8.91243 13.8794 8.7545C13.5011 8.53147 13.0977 8.36301 12.6792 8.25562C12.3817 8.17876 12.1738 7.91029 12.1738 7.60285V6.73828H10.8261V7.60285C10.8261 7.91029 10.6182 8.17876 10.3208 8.25562C9.90227 8.36301 9.49885 8.53147 9.12052 8.7545C8.85731 8.91243 8.51899 8.86909 8.30122 8.65115L7.68793 8.03786L6.7351 8.99069L7.34786 9.60398C7.56493 9.82122 7.60774 10.1581 7.45174 10.4226C7.22801 10.8016 7.06026 11.2057 6.95287 11.6235ZM2.02148 17.5195C0.90686 17.5195 0 16.6127 0 15.498V14.8242H23V15.498C23 16.6127 22.0482 17.5195 20.9336 17.5195H2.02148Z" fill="#9F9F9E"/>
</svg>
