<svg width="23" height="23" viewBox="0 0 23 23" fill="none" xmlns="http://www.w3.org/2000/svg">
<path d="M10.0719 14.4009C9.00273 13.8726 8.26538 12.7709 8.26538 11.4998C8.26538 9.71631 9.71631 8.26538 11.4998 8.26538C12.7709 8.26538 13.8726 9.00273 14.4009 10.0719L17.5483 10.769C17.1861 7.75291 14.6119 5.40723 11.4998 5.40723C8.14032 5.40723 5.40723 8.14032 5.40723 11.4998C5.40723 14.6119 7.75291 17.1861 10.7691 17.5483L10.0719 14.4009Z" fill="#9F9F9E"/>
<path d="M14.0109 19.2379C13.6727 19.4769 13.27 19.6056 12.8475 19.6056C12.6563 19.6056 12.4663 19.5784 12.2825 19.525C11.9157 19.418 11.5949 19.2117 11.348 18.9383C7.31539 18.857 4.05986 15.5517 4.05986 11.5C4.05986 7.39751 7.39751 4.05986 11.5 4.05986C15.5517 4.05986 18.8569 7.31539 18.9383 11.3479C19.2117 11.5948 19.4179 11.9153 19.5248 12.2818C19.6986 12.8778 19.5877 13.5132 19.2377 14.0107L21.8177 16.5907C22.5908 15.0273 23 13.2952 23 11.5C23 8.42824 21.8038 5.54035 19.6318 3.36824C17.4597 1.19622 14.5718 0 11.5 0C8.42824 0 5.54035 1.19622 3.36824 3.36824C1.19622 5.54035 0 8.42824 0 11.5C0 14.5718 1.19622 17.4597 3.36824 19.6318C5.54035 21.8038 8.42824 23 11.5 23C13.2952 23 15.0273 22.5908 16.5906 21.8177L14.0109 19.2379Z" fill="#9F9F9E"/>
<path d="M17.3529 14.0318L18.0606 13.3241C18.2346 13.1501 18.2999 12.8952 18.231 12.659C18.1621 12.4228 17.97 12.243 17.7299 12.1898L11.6457 10.8421C11.4209 10.7924 11.1864 10.8607 11.0235 11.0236C10.8607 11.1864 10.7924 11.421 10.8421 11.6458L12.1898 17.7299C12.243 17.9701 12.4228 18.1622 12.659 18.2311C12.8952 18.2998 13.1501 18.2346 13.3241 18.0606L14.0318 17.353L19.3123 22.6335C19.4439 22.7651 19.6164 22.8309 19.7888 22.8309C19.9612 22.8309 20.1337 22.7652 20.2652 22.6335L22.6334 20.2653C22.8966 20.0021 22.8966 19.5755 22.6334 19.3124L17.3529 14.0318Z" fill="#9F9F9E"/>
</svg>
