<svg width="22" height="22" viewBox="0 0 22 22" fill="none" xmlns="http://www.w3.org/2000/svg">
<path fill-rule="evenodd" clip-rule="evenodd" d="M12.8333 12.8331C12.8333 12.3272 13.243 11.9165 13.7499 11.9165C14.2567 11.9165 14.6665 12.3272 14.6665 12.8331V16.4998C14.6665 18.016 13.4326 19.2498 11.9165 19.2498H9.16651V20.1664C9.16651 21.1775 8.34441 21.9998 7.33331 21.9998C7.13794 21.9998 6.95197 21.9722 6.76499 21.9145L1.24843 20.0756C0.498667 19.8153 0 19.1159 0 18.333V1.8332C0 0.822105 0.822272 0 1.83337 0C1.85862 0 1.88302 0.00522287 1.90741 0.0104432C1.9263 0.0144871 1.94519 0.0185295 1.96446 0.0201414C1.97866 0.0182436 1.99203 0.0144031 2.00534 0.0105798C2.02382 0.00527332 2.04219 0 2.06248 0H11.9165C13.4326 0 14.6665 1.23383 14.6665 2.74997V5.49994C14.6665 6.00583 14.2567 6.41654 13.7499 6.41654C13.243 6.41654 12.8333 6.00583 12.8333 5.49994V2.74997C12.8333 2.24476 12.4225 1.8332 11.9165 1.8332H7.64668L7.91808 1.92401C8.66785 2.18433 9.16651 2.88374 9.16651 3.66657V17.4164H11.9165C12.4225 17.4164 12.8333 17.0049 12.8333 16.4998V12.8331ZM18.0645 4.85159L21.7312 8.51817C22.0896 8.87651 22.0896 9.45592 21.7312 9.81426L18.0645 13.481C17.8025 13.743 17.4082 13.8219 17.0655 13.6799C16.7236 13.5377 16.4998 13.2032 16.4998 12.8328V10.0828H12.8332C12.3272 10.0828 11.9165 9.67227 11.9165 9.16621C11.9165 8.66016 12.3272 8.24961 12.8332 8.24961H16.4998V5.49964C16.4998 5.12921 16.7236 4.79469 17.0655 4.65253C17.4082 4.51053 17.8025 4.58942 18.0645 4.85159Z" fill="#9F9F9E"/>
</svg>
