<svg width="23" height="23" viewBox="0 0 23 23" fill="none" xmlns="http://www.w3.org/2000/svg">
<path fill-rule="evenodd" clip-rule="evenodd" d="M1.955 0.0210852L12.4871 1.6215C13.3017 1.75567 13.8958 2.45525 13.8958 3.27942V22.8294H9.82292V17.7982C9.82292 16.8686 9.07542 16.1211 8.14583 16.1211H5.75C4.82042 16.1211 4.07292 16.8686 4.07292 17.7982V22.8294H0.958333C0.43125 22.8294 0 22.3982 0 21.8711V1.679C0 1.19025 0.220417 0.720668 0.594167 0.394835C0.967917 0.0785851 1.46625 -0.0555815 1.955 0.0210852ZM3.83333 13.9648H5.27083C5.66758 13.9648 5.98958 13.6428 5.98958 13.2461C5.98958 12.8493 5.66758 12.5273 5.27083 12.5273H3.83333C3.43658 12.5273 3.11458 12.8493 3.11458 13.2461C3.11458 13.6428 3.43658 13.9648 3.83333 13.9648ZM3.83333 11.0898H5.27083C5.66758 11.0898 5.98958 10.7678 5.98958 10.3711C5.98958 9.97434 5.66758 9.65234 5.27083 9.65234H3.83333C3.43658 9.65234 3.11458 9.97434 3.11458 10.3711C3.11458 10.7678 3.43658 11.0898 3.83333 11.0898ZM3.83333 8.21484H5.27083C5.66758 8.21484 5.98958 7.89284 5.98958 7.49609C5.98958 7.09934 5.66758 6.77734 5.27083 6.77734H3.83333C3.43658 6.77734 3.11458 7.09934 3.11458 7.49609C3.11458 7.89284 3.43658 8.21484 3.83333 8.21484ZM3.83333 5.33984H5.27083C5.66758 5.33984 5.98958 5.01784 5.98958 4.62109C5.98958 4.22434 5.66758 3.90234 5.27083 3.90234H3.83333C3.43658 3.90234 3.11458 4.22434 3.11458 4.62109C3.11458 5.01784 3.43658 5.33984 3.83333 5.33984ZM8.625 13.9648H10.0625C10.4593 13.9648 10.7812 13.6428 10.7812 13.2461C10.7812 12.8493 10.4593 12.5273 10.0625 12.5273H8.625C8.22825 12.5273 7.90625 12.8493 7.90625 13.2461C7.90625 13.6428 8.22825 13.9648 8.625 13.9648ZM8.625 11.0898H10.0625C10.4593 11.0898 10.7812 10.7678 10.7812 10.3711C10.7812 9.97434 10.4593 9.65234 10.0625 9.65234H8.625C8.22825 9.65234 7.90625 9.97434 7.90625 10.3711C7.90625 10.7678 8.22825 11.0898 8.625 11.0898ZM8.625 8.21484H10.0625C10.4593 8.21484 10.7812 7.89284 10.7812 7.49609C10.7812 7.09934 10.4593 6.77734 10.0625 6.77734H8.625C8.22825 6.77734 7.90625 7.09934 7.90625 7.49609C7.90625 7.89284 8.22825 8.21484 8.625 8.21484ZM8.625 5.33984H10.0625C10.4593 5.33984 10.7812 5.01784 10.7812 4.62109C10.7812 4.22434 10.4593 3.90234 10.0625 3.90234H8.625C8.22825 3.90234 7.90625 4.22434 7.90625 4.62109C7.90625 5.01784 8.22825 5.33984 8.625 5.33984ZM14.8541 8.79077L21.6775 10.2196C22.4604 10.3931 23 11.0668 23 11.8584V21.1523C23 22.0771 22.2477 22.8294 21.3229 22.8294H14.8541V8.79077ZM17.9687 19.9544H19.4062C19.803 19.9544 20.125 19.6324 20.125 19.2356C20.125 18.8389 19.803 18.5169 19.4062 18.5169H17.9687C17.572 18.5169 17.25 18.8389 17.25 19.2356C17.25 19.6324 17.572 19.9544 17.9687 19.9544ZM17.9687 17.0794H19.4062C19.803 17.0794 20.125 16.7574 20.125 16.3606C20.125 15.9639 19.803 15.6419 19.4062 15.6419H17.9687C17.572 15.6419 17.25 15.9639 17.25 16.3606C17.25 16.7574 17.572 17.0794 17.9687 17.0794ZM17.9687 14.2044H19.4062C19.803 14.2044 20.125 13.8824 20.125 13.4856C20.125 13.0889 19.803 12.7669 19.4062 12.7669H17.9687C17.572 12.7669 17.25 13.0889 17.25 13.4856C17.25 13.8824 17.572 14.2044 17.9687 14.2044Z" fill="#9F9F9E"/>
</svg>
