<svg width="22" height="24" viewBox="0 0 22 24" fill="none" xmlns="http://www.w3.org/2000/svg">
<path fill-rule="evenodd" clip-rule="evenodd" d="M0 3C0 5.916 7.63 6 8.5 6C9.37 6 17 5.916 17 3C17 0.0840001 9.37 0 8.5 0C7.63 0 0 0.0840001 0 3ZM15.956 23.767C16.0979 23.916 16.294 24 16.5 24C16.706 24 16.902 23.916 17.044 23.767L21.794 18.767C22.001 18.549 22.0579 18.229 21.9389 17.954C21.8209 17.679 21.55 17.5 21.25 17.5H19V13.25C19 12.561 18.439 12 17.75 12H15.25C14.561 12 14 12.561 14 13.25V17.5H11.75C11.45 17.5 11.179 17.679 11.061 17.954C10.942 18.23 10.999 18.55 11.206 18.767L15.956 23.767ZM8.5 7.50001C6.363 7.50001 2.222 7.27101 0 5.68501V7.00001C0 9.91601 7.63 10 8.5 10C9.37 10 17 9.91601 17 7.00001V5.68501C14.778 7.27101 10.637 7.50001 8.5 7.50001ZM12 13.25C12 12.48 12.27 11.75 12.73 11.19C11.15 11.44 9.57 11.5 8.5 11.5C6.36 11.5 2.22 11.27 0 9.67999V11C0 13.92 7.63 14 8.5 14C8.86 14 10.36 13.99 12 13.77V13.25ZM12 15.29V15.5H11.75C10.65 15.5 9.66 16.15 9.22 17.16C9.1 17.43 9.04 17.71 9.01 17.99C8.77 18 8.6 18 8.5 18C7.63 18 0 17.92 0 15V13.68C2.22 15.27 6.36 15.5 8.5 15.5C9.41 15.5 10.67 15.46 12 15.29ZM8.5 22C8.82 22 9.99 21.99 11.38 21.84L9.76 20.14C9.57 19.94 9.41 19.72 9.3 19.49C9.01 19.5 8.74 19.5 8.5 19.5C6.36 19.5 2.22 19.27 0 17.68V19C0 21.92 7.63 22 8.5 22Z" fill="#9F9F9E"/>
</svg>
