<svg width="45" height="45" viewBox="0 0 45 45" fill="none" xmlns="http://www.w3.org/2000/svg">
<path d="M17.062 12.6402H21.6212V14.398H18.5992C18.1139 14.398 17.7203 14.7915 17.7203 15.2769C17.7203 15.7623 18.1139 16.1558 18.5992 16.1558H21.6212V17.0347C21.6212 17.5201 22.0148 17.9136 22.5001 17.9136C22.9854 17.9136 23.379 17.5201 23.379 17.0347V16.1558H37.3317V17.0347C37.3317 17.5201 37.7253 17.9136 38.2106 17.9136C38.696 17.9136 39.0895 17.5201 39.0895 17.0347V15.2769C39.0895 14.7915 38.696 14.398 38.2106 14.398H23.379V12.6402H27.9605C28.4458 12.6402 28.8394 12.2467 28.8394 11.7613V10.0034C28.8394 8.0383 27.4297 6.39686 25.5686 6.03536C25.9261 5.47409 26.1341 4.80885 26.1341 4.09553V3.62285C26.1341 1.62519 24.5088 0 22.5113 0C20.5137 0 18.8884 1.62519 18.8884 3.62276V4.09544C18.8884 4.80876 19.0964 5.474 19.4539 6.03527C17.5928 6.39677 16.1831 8.03821 16.1831 10.0034V11.7612C16.1831 12.2467 16.5766 12.6402 17.062 12.6402ZM20.6462 3.62276C20.6462 2.59444 21.4829 1.75781 22.5113 1.75781C23.5396 1.75781 24.3763 2.59444 24.3763 3.62276V4.09544C24.3763 5.12385 23.5396 5.96048 22.5113 5.96048C21.4829 5.96048 20.6462 5.12385 20.6462 4.09544V3.62276ZM17.9409 10.0034C17.9409 8.74345 18.966 7.71829 20.2261 7.71829H24.7964C26.0565 7.71829 27.0816 8.74345 27.0816 10.0034V10.8824H17.9409V10.0034Z" fill="white"/>
<path d="M1.32495 32.312H5.89526V34.0698H2.83887C2.35353 34.0698 1.95996 34.4633 1.95996 34.9487V36.7065C1.95996 37.1919 2.35353 37.5854 2.83887 37.5854C3.3242 37.5854 3.71777 37.1919 3.71777 36.7065V35.8276H9.83057V36.7065C9.83057 37.1919 10.2241 37.5854 10.7095 37.5854C11.1948 37.5854 11.5884 37.1919 11.5884 36.7065V34.9487C11.5884 34.4633 11.1948 34.0698 10.7095 34.0698H7.65308V32.312H12.2234C12.7087 32.312 13.1023 31.9185 13.1023 31.433V29.6752C13.1023 27.7101 11.6926 26.0686 9.83153 25.7071C10.189 25.1459 10.397 24.4806 10.397 23.7673V23.2946C10.397 21.297 8.77184 19.6719 6.77417 19.6719C4.7765 19.6719 3.15132 21.2971 3.15132 23.2946V23.7673C3.15132 24.4806 3.35936 25.1459 3.71681 25.7071C1.85572 26.0686 0.446045 27.71 0.446045 29.6752V31.433C0.446045 31.9185 0.839619 32.312 1.32495 32.312ZM4.90913 23.2945C4.90913 22.2662 5.74585 21.4296 6.77417 21.4296C7.80249 21.4296 8.63921 22.2662 8.63921 23.2945V23.7672C8.63921 24.7956 7.80249 25.6323 6.77417 25.6323C5.74585 25.6323 4.90913 24.7956 4.90913 23.7672V23.2945ZM2.20386 29.6752C2.20386 28.4152 3.22893 27.3901 4.48901 27.3901H9.05933C10.3194 27.3901 11.3445 28.4152 11.3445 29.6752V30.5541H2.20386V29.6752Z" fill="white"/>
<path d="M17.062 32.312H21.6212V34.0698H18.5649C18.0796 34.0698 17.686 34.4633 17.686 34.9487V36.7065C17.686 37.1919 18.0796 37.5854 18.5649 37.5854C19.0502 37.5854 19.4438 37.1919 19.4438 36.7065V35.8276H25.5565V36.7065C25.5565 37.1919 25.9501 37.5854 26.4354 37.5854C26.9207 37.5854 27.3143 37.1919 27.3143 36.7065V34.9487C27.3143 34.4633 26.9207 34.0698 26.4354 34.0698H23.379V32.312H27.9605C28.4458 32.312 28.8394 31.9185 28.8394 31.433V29.6752C28.8394 27.7101 27.4297 26.0686 25.5686 25.7071C25.9261 25.1459 26.1341 24.4806 26.1341 23.7673V23.2946C26.1341 21.297 24.5089 19.6719 22.5113 19.6719C20.5136 19.6719 18.8884 21.2971 18.8884 23.2946V23.7673C18.8884 24.4806 19.0964 25.1459 19.4539 25.7071C17.5928 26.0686 16.1831 27.7101 16.1831 29.6752V31.433C16.1831 31.9185 16.5766 32.312 17.062 32.312ZM20.6462 23.2945C20.6462 22.2662 21.4829 21.4296 22.5113 21.4296C23.5396 21.4296 24.3763 22.2662 24.3763 23.2945V23.7672C24.3763 24.7956 23.5396 25.6323 22.5113 25.6323C21.4829 25.6323 20.6462 24.7956 20.6462 23.7672V23.2945ZM17.9409 29.6752C17.9409 28.4152 18.966 27.3901 20.2261 27.3901H24.7964C26.0565 27.3901 27.0816 28.4152 27.0816 29.6752V30.5541H17.9409V29.6752Z" fill="white"/>
<path d="M34.7678 23.3103V23.7829C34.7678 24.4963 34.9758 25.1615 35.3333 25.7228C33.4722 26.0843 32.0625 27.7257 32.0625 29.6909V31.4487C32.0625 31.9341 32.4561 32.3276 32.9414 32.3276H37.5117V34.0854H34.4553C33.97 34.0854 33.5764 34.4789 33.5764 34.9643V36.7221C33.5764 37.2075 33.97 37.601 34.4553 37.601C34.9407 37.601 35.3342 37.2075 35.3342 36.7221V35.8432H41.447V36.7221C41.447 37.2075 41.8406 37.601 42.3259 37.601C42.8113 37.601 43.2048 37.2075 43.2048 36.7221V34.9643C43.2048 34.4789 42.8113 34.0854 42.3259 34.0854H39.2695V32.3276H43.8398C44.3252 32.3276 44.7188 31.9341 44.7188 31.4487V29.6909C44.7188 27.7257 43.3091 26.0843 41.448 25.7228C41.8054 25.1615 42.0135 24.4963 42.0135 23.7829V23.3103C42.0135 21.3126 40.3883 19.6875 38.3906 19.6875C36.393 19.6875 34.7678 21.3126 34.7678 23.3103ZM42.9609 29.691V30.5699H33.8203V29.691C33.8203 28.431 34.8454 27.4058 36.1055 27.4058H40.6758C41.9359 27.4058 42.9609 28.4309 42.9609 29.691ZM40.2557 23.3103V23.7829C40.2557 24.8113 39.4189 25.648 38.3906 25.648C37.3623 25.648 36.5256 24.8113 36.5256 23.7829V23.3103C36.5256 22.2819 37.3623 21.4453 38.3906 21.4453C39.4189 21.4453 40.2557 22.2819 40.2557 23.3103Z" fill="white"/>
<path d="M2.83887 39.3223C1.27345 39.3223 0 40.5958 0 42.1611C0 43.7265 1.27345 45.0001 2.83887 45.0001C4.40429 45.0001 5.67782 43.7266 5.67782 42.1612C5.67782 40.5959 4.4042 39.3223 2.83887 39.3223ZM2.83887 43.2423C2.24279 43.2423 1.75781 42.7573 1.75781 42.1612C1.75781 41.5651 2.24279 41.0802 2.83887 41.0802C3.43494 41.0802 3.92001 41.5651 3.92001 42.1612C3.92001 42.7573 3.43494 43.2423 2.83887 43.2423Z" fill="white"/>
<path d="M10.7095 39.3223C9.14405 39.3223 7.87061 40.5958 7.87061 42.1611C7.87061 43.7265 9.14405 45 10.7095 45C12.2749 45 13.5484 43.7265 13.5484 42.1611C13.5484 40.5958 12.2748 39.3223 10.7095 39.3223ZM10.7095 43.2423C10.1134 43.2423 9.62842 42.7573 9.62842 42.1612C9.62842 41.5651 10.1134 41.0802 10.7095 41.0802C11.3055 41.0802 11.7906 41.5651 11.7906 42.1612C11.7906 42.7573 11.3055 43.2423 10.7095 43.2423Z" fill="white"/>
<path d="M18.5798 39.3223C17.0144 39.3223 15.7409 40.5958 15.7409 42.1611C15.7409 43.7265 17.0144 45 18.5798 45C20.1452 45 21.4188 43.7265 21.4188 42.1611C21.4188 40.5958 20.1452 39.3223 18.5798 39.3223ZM18.5798 43.2423C17.9837 43.2423 17.4987 42.7573 17.4987 42.1612C17.4987 41.5651 17.9837 41.0802 18.5798 41.0802C19.1759 41.0802 19.6609 41.5651 19.6609 42.1612C19.6609 42.7573 19.176 43.2423 18.5798 43.2423Z" fill="white"/>
<path d="M26.4507 39.3223C24.8853 39.3223 23.6118 40.5958 23.6118 42.1611C23.6118 43.7265 24.8853 45 26.4507 45C28.0161 45 29.2896 43.7265 29.2896 42.1611C29.2896 40.5958 28.0161 39.3223 26.4507 39.3223ZM26.4507 43.2423C25.8546 43.2423 25.3696 42.7573 25.3696 42.1612C25.3696 41.5651 25.8546 41.0802 26.4507 41.0802C27.0468 41.0802 27.5317 41.5651 27.5317 42.1612C27.5317 42.7573 27.0468 43.2423 26.4507 43.2423Z" fill="white"/>
<path d="M34.3059 39.3223C32.7405 39.3223 31.467 40.5958 31.467 42.1611C31.467 43.7265 32.7405 45 34.3059 45C35.8713 45 37.1449 43.7265 37.1449 42.1611C37.1449 40.5958 35.8713 39.3223 34.3059 39.3223ZM34.3059 43.2423C33.7098 43.2423 33.2249 42.7573 33.2249 42.1612C33.2249 41.5651 33.7098 41.0802 34.3059 41.0802C34.902 41.0802 35.3871 41.5651 35.3871 42.1612C35.3871 42.7573 34.902 43.2423 34.3059 43.2423Z" fill="white"/>
<path d="M42.1612 39.3223C40.5958 39.3223 39.3223 40.5958 39.3223 42.1611C39.3223 43.7265 40.5959 45.0001 42.1612 45.0001C43.7266 45.0001 45.0001 43.7266 45.0001 42.1612C45.0001 40.5959 43.7266 39.3223 42.1612 39.3223ZM42.1612 43.2423C41.5651 43.2423 41.0801 42.7573 41.0801 42.1612C41.0801 41.5651 41.5651 41.0802 42.1612 41.0802C42.7573 41.0802 43.2423 41.5651 43.2423 42.1612C43.2423 42.7573 42.7573 43.2423 42.1612 43.2423Z" fill="white"/>
<path d="M6.78955 17.9141C7.27488 17.9141 7.66846 17.5206 7.66846 17.0352V16.1563H10.6897C11.175 16.1563 11.5686 15.7628 11.5686 15.2773C11.5686 14.7919 11.175 14.3984 10.6897 14.3984H6.78955C6.30422 14.3984 5.91064 14.7919 5.91064 15.2773V17.0352C5.91064 17.5206 6.30422 17.9141 6.78955 17.9141Z" fill="white"/>
<path d="M14.6453 14.3984C14.4133 14.3984 14.1874 14.4916 14.0231 14.656C13.8596 14.8194 13.7664 15.0462 13.7664 15.2773C13.7664 15.5085 13.8596 15.7353 14.0231 15.8987C14.1874 16.0622 14.4133 16.1562 14.6453 16.1562C14.8765 16.1562 15.1024 16.0622 15.2658 15.8987C15.4302 15.7353 15.5234 15.5085 15.5234 15.2773C15.5234 15.0462 15.4302 14.8194 15.2658 14.656C15.1024 14.4916 14.8765 14.3984 14.6453 14.3984Z" fill="white"/>
</svg>
