<svg width="45" height="51" viewBox="0 0 45 51" fill="none" xmlns="http://www.w3.org/2000/svg">
<path d="M34.6682 16.7614C34.1248 16.7614 33.6842 16.3207 33.6842 15.7773V9.0485C33.6842 8.50511 34.1248 8.06445 34.6682 8.06445C35.2116 8.06445 35.6523 8.50511 35.6523 9.0485V15.7773C35.6523 16.3207 35.2117 16.7614 34.6682 16.7614Z" fill="white"/>
<path d="M34.6639 6.86653C35.2074 6.86653 35.648 6.42596 35.648 5.88248C35.648 5.33901 35.2074 4.89844 34.6639 4.89844C34.1204 4.89844 33.6799 5.33901 33.6799 5.88248C33.6799 6.42596 34.1204 6.86653 34.6639 6.86653Z" fill="white"/>
<path d="M45 10.3381C45 4.63761 40.3633 0 34.6639 0C32.3048 0 30.1279 0.794518 28.3864 2.13006H3.58124C1.60655 2.13006 0 3.73652 0 5.7113V41.5082C0 43.4829 1.60655 45.0895 3.58124 45.0895H6.70371V46.8018C6.70371 48.7765 8.31026 50.3831 10.2849 50.3831H36.0139C37.9886 50.3831 39.5951 48.7766 39.5951 46.8018V33.1529C39.5951 32.6095 39.1545 32.1688 38.6111 32.1688C38.0677 32.1688 37.627 32.6095 37.627 33.1529V46.8018C37.627 47.6913 36.9034 48.415 36.0139 48.415H10.2849C9.39547 48.415 8.6718 47.6914 8.6718 46.8018V45.0895H29.3103C31.285 45.0895 32.8916 43.483 32.8916 41.5082V20.524C33.4677 20.624 34.0598 20.6762 34.664 20.6762C35.6934 20.6762 36.6882 20.5248 37.6271 20.2433V24.256C37.6271 24.7994 38.0678 25.2401 38.6112 25.2401C39.1546 25.2401 39.5952 24.7994 39.5952 24.256V19.4219C42.8123 17.6677 45 14.2537 45 10.3381ZM30.9235 41.5083C30.9235 42.3978 30.1999 43.1216 29.3103 43.1216H3.58124C2.69176 43.1216 1.96809 42.3979 1.96809 41.5083V5.7113C1.96809 4.82182 2.69176 4.09816 3.58124 4.09816H26.4279C25.1927 5.72508 24.4277 7.72761 24.337 9.90146H7.57961C7.03622 9.90146 6.59556 10.3421 6.59556 10.8855V15.0415C6.59556 15.5849 7.03622 16.0256 7.57961 16.0256H25.3119C25.5356 16.0256 25.7418 15.9509 25.9072 15.8251C27.0827 17.6952 28.8402 19.1641 30.9235 19.9757V41.5083ZM24.3279 11.8696V14.0575H8.56365V11.8696H24.3279ZM34.6639 18.708C30.0498 18.708 26.296 14.9533 26.296 10.338C26.296 5.72281 30.0498 1.96799 34.6639 1.96799C39.2781 1.96799 43.0319 5.72272 43.0319 10.338C43.0319 14.9533 39.2781 18.708 34.6639 18.708Z" fill="white"/>
<path d="M38.6106 29.6711C38.2051 29.6711 37.8335 29.4116 37.6906 29.0333C37.5439 28.6449 37.664 28.1884 37.9867 27.9257C38.3099 27.6627 38.7753 27.6311 39.1298 27.8511C39.4837 28.0708 39.6649 28.504 39.5691 28.9103C39.4655 29.3498 39.0627 29.6711 38.6106 29.6711Z" fill="white"/>
<path d="M25.3119 21.4163H7.57961C7.03622 21.4163 6.59557 20.9758 6.59557 20.4323C6.59557 19.8889 7.03622 19.4482 7.57961 19.4482H25.3119C25.8553 19.4482 26.296 19.8889 26.296 20.4323C26.296 20.9757 25.8554 21.4163 25.3119 21.4163Z" fill="white"/>
<path d="M25.3118 26.0833H7.57947C7.03608 26.0833 6.59543 25.6427 6.59543 25.0993C6.59543 24.5558 7.03608 24.1152 7.57947 24.1152H25.3118C25.8552 24.1152 26.2958 24.5558 26.2958 25.0993C26.2958 25.6427 25.8553 26.0833 25.3118 26.0833Z" fill="white"/>
<path d="M25.3118 30.7513H7.57947C7.03608 30.7513 6.59543 30.3106 6.59543 29.7672C6.59543 29.2239 7.03608 28.7832 7.57947 28.7832H25.3118C25.8552 28.7832 26.2958 29.2239 26.2958 29.7672C26.2958 30.3107 25.8553 30.7513 25.3118 30.7513Z" fill="white"/>
<path d="M25.3118 35.4183H7.57947C7.03608 35.4183 6.59543 34.9776 6.59543 34.4342C6.59543 33.8908 7.03608 33.4502 7.57947 33.4502H25.3118C25.8552 33.4502 26.2958 33.8908 26.2958 34.4342C26.2958 34.9776 25.8553 35.4183 25.3118 35.4183Z" fill="white"/>
</svg>
