<svg width="47" height="34" viewBox="0 0 47 34" fill="none" xmlns="http://www.w3.org/2000/svg">
<path fill-rule="evenodd" clip-rule="evenodd" d="M17.3336 0H41.6318C44.0947 0 46.0984 1.97136 46.0984 4.39453V29.0039C46.0984 31.4271 44.0947 33.3984 41.6318 33.3984H4.82723C2.36433 33.3984 0.360657 31.4271 0.360657 29.0039V4.39453C0.360657 1.97136 2.36433 0 4.82723 0H10.1871C10.6805 0 11.0804 0.393448 11.0804 0.878906C11.0804 1.36436 10.6805 1.75781 10.1871 1.75781H4.82723C3.34942 1.75781 2.14729 2.94056 2.14729 4.39453V29.0039C2.14729 30.4579 3.34942 31.6406 4.82723 31.6406H41.6318C43.1096 31.6406 44.3117 30.4579 44.3117 29.0039V4.39453C44.3117 2.94056 43.1096 1.75781 41.6318 1.75781H17.3336C16.8402 1.75781 16.4403 1.36436 16.4403 0.878906C16.4403 0.393448 16.8402 0 17.3336 0ZM5.18437 13.0078C5.18437 8.35545 9.03156 4.57031 13.7602 4.57031C18.4888 4.57031 22.336 8.35545 22.336 13.0078C22.336 17.6602 18.4888 21.4453 13.7602 21.4453C9.03156 21.4453 5.18437 17.6602 5.18437 13.0078ZM13.7602 15.9419C12.0458 15.9419 10.5247 16.9632 9.88125 18.4852C10.9815 19.2419 12.3187 19.6875 13.7602 19.6875C15.2017 19.6875 16.5389 19.2419 17.6395 18.4852C16.996 16.9632 15.4746 15.9419 13.7602 15.9419ZM12.1348 12.2546V12.5848C12.1348 13.4665 12.8641 14.184 13.7602 14.184C14.6563 14.184 15.3856 13.4665 15.3856 12.5848V12.2546C15.3856 11.3726 14.6563 10.6554 13.7602 10.6554C12.8641 10.6554 12.1348 11.3726 12.1348 12.2546ZM16.3518 14.7646C17.4695 15.293 18.4047 16.1547 19.0098 17.2382C19.9712 16.0854 20.5494 14.6118 20.5494 13.0078C20.5494 9.32465 17.5037 6.32813 13.7602 6.32813C10.0166 6.32813 6.971 9.32465 6.971 13.0078C6.971 14.6118 7.54921 16.0854 8.51057 17.2382C9.11565 16.1547 10.0508 15.2926 11.1685 14.7646C10.6577 14.1775 10.3481 13.4164 10.3481 12.5848V12.2546C10.3481 10.4034 11.879 8.89755 13.7602 8.89755C15.6414 8.89755 17.1722 10.4034 17.1722 12.2546V12.5848C17.1722 13.4164 16.8627 14.1775 16.3518 14.7646ZM27.5172 17.5781H40.381C40.8744 17.5781 41.2743 17.1847 41.2743 16.6992V9.66797C41.2743 9.18251 40.8744 8.78906 40.381 8.78906H27.5172C27.0238 8.78906 26.6239 9.18251 26.6239 9.66797V16.6992C26.6239 17.1847 27.0238 17.5781 27.5172 17.5781ZM28.4105 10.5469H39.4877V15.8203H28.4105V10.5469ZM40.381 21.0938H27.5172C27.0238 21.0938 26.6239 20.7003 26.6239 20.2148C26.6239 19.7294 27.0238 19.3359 27.5172 19.3359H40.381C40.8744 19.3359 41.2743 19.7294 41.2743 20.2148C41.2743 20.7003 40.8744 21.0938 40.381 21.0938ZM26.8856 24.3519C27.0517 24.5153 27.2824 24.6094 27.5172 24.6094C27.7521 24.6094 27.9827 24.5153 28.1488 24.3519C28.3149 24.1885 28.4105 23.9615 28.4105 23.7305C28.4105 23.4994 28.3149 23.2725 28.1488 23.1091C27.9827 22.9456 27.7521 22.8516 27.5172 22.8516C27.2824 22.8516 27.0517 22.9456 26.8856 23.1091C26.7195 23.2725 26.6239 23.4994 26.6239 23.7305C26.6239 23.9615 26.7195 24.1885 26.8856 24.3519ZM30.1972 23.7305C30.1972 23.4994 30.2928 23.2725 30.4589 23.1091C30.625 22.9456 30.8556 22.8516 31.0905 22.8516C31.3253 22.8516 31.556 22.9456 31.7221 23.1091C31.8882 23.2725 31.9838 23.4994 31.9838 23.7305C31.9838 23.9615 31.8882 24.1885 31.7221 24.3519C31.556 24.5153 31.3253 24.6094 31.0905 24.6094C30.8556 24.6094 30.625 24.5153 30.4589 24.3519C30.2928 24.1885 30.1972 23.9615 30.1972 23.7305ZM40.381 22.8516H34.6637C34.1703 22.8516 33.7704 23.245 33.7704 23.7305C33.7704 24.2159 34.1703 24.6094 34.6637 24.6094H40.381C40.8744 24.6094 41.2743 24.2159 41.2743 23.7305C41.2743 23.245 40.8744 22.8516 40.381 22.8516ZM19.2692 23.2103C19.7623 23.2103 20.1625 23.6041 20.1625 24.0892C20.1625 24.5747 19.7623 24.9681 19.2692 24.9681H8.25142C7.75835 24.9681 7.3581 24.5747 7.3581 24.0892C7.3581 23.6041 7.75835 23.2103 8.25142 23.2103H19.2692ZM9.68072 26.726C9.18765 26.726 8.78741 27.1198 8.78741 27.6049C8.78741 28.0903 9.18765 28.4838 9.68072 28.4838H17.8399C18.333 28.4838 18.7332 28.0903 18.7332 27.6049C18.7332 27.1198 18.333 26.726 17.8399 26.726H9.68072ZM14.3918 1.50032C14.2257 1.66374 13.995 1.75781 13.7602 1.75781C13.5253 1.75781 13.2947 1.66374 13.1286 1.50032C12.9625 1.3369 12.8669 1.10996 12.8669 0.878906C12.8669 0.64785 12.9625 0.420914 13.1286 0.257492C13.2947 0.0940704 13.5253 0 13.7602 0C13.995 0 14.2257 0.0940704 14.3918 0.257492C14.5579 0.420914 14.6535 0.64785 14.6535 0.878906C14.6535 1.10996 14.5579 1.3369 14.3918 1.50032Z" fill="white"/>
</svg>
