<svg width="22" height="22" viewBox="0 0 22 22" fill="none" xmlns="http://www.w3.org/2000/svg">
<path fill-rule="evenodd" clip-rule="evenodd" d="M8.40039 0C13.0324 0 16.8008 3.76832 16.8008 8.40039C16.8008 13.0324 13.0324 16.8008 8.40039 16.8008C6.89077 16.8008 5.42094 16.3989 4.13054 15.6359L0.0308838 16.7697L1.16486 12.6702C0.401825 11.3798 0 9.91 0 8.40039C0 3.76832 3.76832 0 8.40039 0ZM5.82226 6.44531H7.11133C7.11133 5.73448 7.68956 5.15625 8.40039 5.15625C9.11122 5.15625 9.68945 5.73448 9.68945 6.44531C9.68945 6.81138 9.5404 7.14926 9.26983 7.39683L7.75586 8.78257V10.3555H9.04492V9.35023L10.1401 8.34785C10.673 7.86042 10.9785 7.16688 10.9785 6.44531C10.9785 5.02365 9.82205 3.86719 8.40039 3.86719C6.97873 3.86719 5.82226 5.02365 5.82226 6.44531ZM9.04492 12.9336V11.6445H7.75586V12.9336H9.04492ZM18.0882 8.53715C20.4338 9.72231 22 12.1588 22 14.8888C22 16.1688 21.6591 17.4135 21.0114 18.5072L21.9689 21.9691L18.5071 21.0115C17.4134 21.6592 16.1687 22.0001 14.8887 22.0001C12.1586 22.0001 9.72218 20.4339 8.53702 18.0883C13.7715 18.0154 18.0153 13.7716 18.0882 8.53715Z" fill="#9F9F9E"/>
</svg>
